<?xml version="1.0" encoding="utf-8"?>
<!-- Generator: Adobe Illustrator 16.0.0, SVG Export Plug-In . SVG Version: 6.00 Build 0)  -->
<!DOCTYPE svg PUBLIC "-//W3C//DTD SVG 1.1//EN" "http://www.w3.org/Graphics/SVG/1.1/DTD/svg11.dtd">
<svg version="1.1" id="Layer_1" xmlns="http://www.w3.org/2000/svg" xmlns:xlink="http://www.w3.org/1999/xlink" x="0px" y="0px"
	 width="50px" height="50px" viewBox="0 0 50 50" enable-background="new 0 0 50 50" xml:space="preserve">
<g>
	<path fill="#00AAAD" d="M43.068,28.833c-0.188,0-0.375,0.008-0.557,0.022c-0.711-2.343-2.305-4.285-4.385-5.482
		c-0.006,0.006-0.012,0.012-0.018,0.018l-0.768,0.469c0.035,0.357,0.047,0.707,0.035,1.055l0.773,0.38
		c0.738,0.369,1.084,1.232,0.805,2.01l-0.711,1.945c-0.234,0.642-0.852,1.072-1.535,1.072c-0.121,0-0.242-0.012-0.363-0.041
		l-0.863-0.205c-0.203,0.248-0.42,0.49-0.654,0.721l0.275,0.82c0.264,0.789-0.105,1.641-0.855,1.988l-1.871,0.875
		c-0.725,0.348-1.648,0.07-2.072-0.619l-0.41-0.666c-0.373,0.047-0.742,0.074-1.129,0.068l-0.363,0.715
		c-0.281,0.557-0.838,0.9-1.453,0.9c-0.193,0-0.381-0.033-0.562-0.104l-1.935-0.703c-0.785-0.287-1.225-1.106-1.031-1.909
		l0.168-0.691c-0.338-0.264-0.656-0.553-0.959-0.867l-0.666,0.221c-0.746,0.248-1.648-0.121-1.992-0.854l-0.875-1.875
		c-0.34-0.738-0.076-1.629,0.617-2.072l0.613-0.375c-0.047-0.406-0.064-0.816-0.053-1.223l-0.607-0.309
		c-0.74-0.375-1.08-1.238-0.793-2.012l0.703-1.938c0.275-0.762,1.107-1.219,1.904-1.025l0.697,0.164
		c0.238-0.291,0.492-0.562,0.762-0.818l-0.229-0.693c-0.258-0.791,0.111-1.643,0.854-1.992l1.878-0.873
		c0.717-0.334,1.645-0.064,2.073,0.617l0.396,0.648c0.383-0.043,0.762-0.053,1.15-0.047l0.281-0.551
		c-2.104-1.934-4.882-3.135-7.964-3.135c-6.258,0-11.385,4.877-11.773,11.045H9.581c-4.869,0-8.812,3.955-8.812,8.82
		c0,4.871,3.943,8.822,8.818,8.822h33.487c3.398,0,6.156-2.76,6.156-6.164C49.23,31.587,46.467,28.833,43.068,28.833z"/>
	<path fill="#00AAAD" d="M36.871,14.543c-0.049,0.457-0.037,0.92,0.033,1.377l-0.469,0.275c-0.375,0.229-0.527,0.703-0.34,1.107
		l0.361,0.799c0.176,0.402,0.627,0.602,1.049,0.467l0.521-0.17c0.299,0.367,0.645,0.691,1.033,0.961l-0.141,0.545
		c-0.102,0.424,0.127,0.861,0.537,1.014l0.826,0.316c0.41,0.156,0.879-0.018,1.078-0.416l0.271-0.539
		c0.439,0.035,0.881,0.014,1.314-0.061l0.311,0.523c0.229,0.375,0.699,0.527,1.104,0.34l0.799-0.355
		c0.404-0.184,0.604-0.637,0.469-1.057l-0.199-0.621c0.316-0.264,0.592-0.557,0.826-0.885l0.639,0.158
		c0.43,0.111,0.863-0.117,1.025-0.533l0.307-0.816c0.15-0.418-0.02-0.877-0.412-1.082l-0.584-0.293
		c0.039-0.426,0.033-0.844-0.031-1.262l0.578-0.344c0.371-0.227,0.518-0.699,0.342-1.098l-0.363-0.801
		c-0.178-0.402-0.633-0.609-1.053-0.465L46.1,11.816c-0.281-0.35-0.605-0.662-0.969-0.928l0.158-0.605
		c0.102-0.43-0.129-0.863-0.545-1.016l-0.82-0.311c-0.408-0.154-0.865,0.018-1.07,0.412l-0.283,0.54
		c-0.439-0.047-0.883-0.035-1.32,0.035l-0.303-0.492c-0.223-0.385-0.697-0.529-1.096-0.35l-0.803,0.367
		c-0.398,0.176-0.602,0.633-0.471,1.049l0.174,0.545c-0.338,0.27-0.643,0.592-0.895,0.941l-0.539-0.137
		c-0.434-0.109-0.867,0.117-1.025,0.531l-0.305,0.824c-0.158,0.414,0.018,0.875,0.412,1.074L36.871,14.543z M41.111,13.013
		c1.143-0.518,2.494-0.01,3.02,1.137c0.514,1.148,0.002,2.498-1.145,3.018c-1.148,0.52-2.49,0.006-3.014-1.143
		C39.453,14.882,39.963,13.529,41.111,13.013z"/>
	<path fill="#00AAAD" d="M26.879,15.943c-0.234-0.375-0.719-0.521-1.12-0.334l-1.875,0.873c-0.404,0.188-0.598,0.65-0.459,1.076
		l0.387,1.168c-0.508,0.414-0.953,0.891-1.332,1.424l-1.168-0.281c-0.439-0.104-0.879,0.141-1.031,0.551l-0.703,1.945
		c-0.156,0.416,0.029,0.881,0.428,1.084l1.049,0.527c-0.064,0.684-0.035,1.37,0.082,2.057l-1.02,0.623
		c-0.379,0.244-0.527,0.72-0.34,1.123l0.879,1.875c0.184,0.399,0.645,0.604,1.072,0.457l1.131-0.375
		c0.463,0.545,0.988,1.021,1.574,1.424l-0.279,1.181c-0.105,0.438,0.135,0.875,0.553,1.028l1.943,0.703
		c0.416,0.158,0.881-0.028,1.084-0.428l0.578-1.147c0.656,0.04,1.314,0.006,1.959-0.117l0.668,1.09
		c0.236,0.381,0.715,0.521,1.123,0.332l1.871-0.875c0.404-0.188,0.604-0.646,0.461-1.068l-0.432-1.283
		c0.457-0.398,0.869-0.85,1.219-1.342l1.334,0.316c0.434,0.1,0.871-0.135,1.027-0.558l0.709-1.938
		c0.152-0.422-0.035-0.885-0.434-1.084l-1.217-0.604c0.059-0.639,0.031-1.264-0.066-1.889l1.178-0.723
		c0.375-0.236,0.521-0.717,0.33-1.117l-0.871-1.879c-0.188-0.402-0.648-0.598-1.074-0.457l-1.262,0.416
		c-0.428-0.516-0.92-0.973-1.471-1.371l0.307-1.271c0.104-0.434-0.133-0.873-0.551-1.025l-1.947-0.709
		c-0.416-0.156-0.879,0.029-1.078,0.434l-0.586,1.152c-0.662-0.059-1.324-0.033-1.979,0.078L26.879,15.943z M31.93,23.255
		c0.791,1.705,0.053,3.748-1.664,4.546c-1.705,0.798-3.744,0.05-4.54-1.651c-0.799-1.717-0.061-3.756,1.645-4.549
		C29.09,20.8,31.133,21.545,31.93,23.255z"/>
</g>
</svg>
