<?xml version="1.0" encoding="utf-8"?>
<!-- Generator: Adobe Illustrator 16.0.0, SVG Export Plug-In . SVG Version: 6.00 Build 0)  -->
<!DOCTYPE svg PUBLIC "-//W3C//DTD SVG 1.1//EN" "http://www.w3.org/Graphics/SVG/1.1/DTD/svg11.dtd">
<svg version="1.1" id="Layer_1" xmlns="http://www.w3.org/2000/svg" xmlns:xlink="http://www.w3.org/1999/xlink" x="0px" y="0px"
	 width="50px" height="50px" viewBox="0 0 50 50" enable-background="new 0 0 50 50" xml:space="preserve">
<path fill="#00AAAD" d="M10.138,25.701v-1.402c0-0.014,0.002-0.028,0.002-0.042H7.166V23.7c0-0.264-0.141-0.509-0.369-0.642
	l-2.229-1.3c-0.231-0.135-0.518-0.135-0.749,0l-2.229,1.3c-0.228,0.133-0.369,0.378-0.369,0.642v2.601
	c0,0.264,0.141,0.508,0.369,0.642l2.229,1.301c0.231,0.134,0.518,0.134,0.749,0l2.229-1.301c0.228-0.134,0.369-0.378,0.369-0.642
	v-0.558h2.975C10.14,25.729,10.138,25.715,10.138,25.701z M5.679,25.874L4.193,26.74l-1.486-0.867v-1.747l1.486-0.867l1.486,0.867
	V25.874z"/>
<path fill="#00AAAD" d="M35.013,13.993l0.995,0.996c0.009,0.009,0.016,0.02,0.025,0.029l1.802-1.801l2.083,0.548
	c0.256,0.067,0.527-0.006,0.714-0.193l1.839-1.839c0.188-0.187,0.261-0.458,0.194-0.714l-0.657-2.496
	c-0.068-0.259-0.271-0.461-0.529-0.53l-2.496-0.657c-0.256-0.067-0.527,0.006-0.715,0.193l-1.839,1.839
	c-0.187,0.187-0.261,0.459-0.193,0.714l0.549,2.084l-1.802,1.8C34.992,13.976,35.003,13.983,35.013,13.993z M39.017,8.881
	l1.664,0.438l0.438,1.664l-1.235,1.235l-1.664-0.438l-0.438-1.664L39.017,8.881z"/>
<path fill="#00AAAD" d="M14.99,36.008l-0.995-0.994c-0.01-0.011-0.018-0.021-0.028-0.031l-1.801,1.802l-2.083-0.549
	c-0.256-0.067-0.528,0.007-0.714,0.193l-1.839,1.839c-0.187,0.188-0.261,0.459-0.193,0.715l0.657,2.496
	c0.068,0.259,0.271,0.461,0.529,0.529l2.496,0.657c0.256,0.066,0.528-0.007,0.714-0.194l1.839-1.839
	c0.187-0.187,0.26-0.458,0.193-0.714l-0.548-2.083l1.801-1.801C15.008,36.024,14.998,36.018,14.99,36.008z M10.983,41.118
	l-1.664-0.438l-0.438-1.664l1.236-1.235l1.664,0.438l0.438,1.664L10.983,41.118z"/>
<path fill="#00AAAD" d="M22.396,6.507l1.861,1.085v2.548c0.015,0,0.028-0.002,0.043-0.002h1.401c0.014,0,0.028,0.001,0.042,0.002
	V7.592l1.86-1.085c0.229-0.133,0.369-0.377,0.369-0.642V3.264c0-0.264-0.141-0.508-0.369-0.642l-2.229-1.3
	c-0.232-0.135-0.518-0.135-0.749,0l-2.229,1.3C22.168,2.756,22.027,3,22.027,3.264v2.601C22.027,6.129,22.168,6.374,22.396,6.507z
	 M23.514,3.691L25,2.824l1.486,0.867v1.747L25,6.305l-1.486-0.867V3.691z"/>
<path fill="#00AAAD" d="M27.604,43.493l-1.86-1.085v-2.549c-0.014,0.001-0.028,0.003-0.042,0.003H24.3
	c-0.015,0-0.028-0.003-0.043-0.003v2.549l-1.861,1.085c-0.228,0.133-0.369,0.378-0.369,0.642v2.601c0,0.265,0.141,0.509,0.369,0.643
	l2.229,1.301c0.231,0.134,0.517,0.134,0.749,0l2.229-1.301c0.229-0.134,0.369-0.378,0.369-0.643v-2.601
	C27.973,43.871,27.832,43.626,27.604,43.493z M26.486,46.309L25,47.176l-1.486-0.867v-1.747L25,43.695l1.486,0.866V46.309z"/>
<path fill="#00AAAD" d="M48.41,23.058l-2.229-1.3c-0.232-0.135-0.518-0.135-0.749,0l-2.229,1.3
	c-0.229,0.133-0.369,0.378-0.369,0.642v0.557h-2.975c0.001,0.014,0.002,0.028,0.002,0.042v1.402c0,0.014-0.001,0.028-0.002,0.042
	h2.975v0.558c0,0.264,0.141,0.508,0.369,0.642l2.229,1.301c0.231,0.134,0.517,0.134,0.749,0l2.229-1.301
	c0.229-0.134,0.369-0.378,0.369-0.642V23.7C48.779,23.436,48.639,23.191,48.41,23.058z M47.293,25.874l-1.486,0.867l-1.486-0.867
	v-1.747l1.486-0.867l1.486,0.867V25.874z"/>
<path fill="#00AAAD" d="M40.632,36.429c-0.187-0.187-0.458-0.261-0.714-0.193l-2.083,0.549l-1.802-1.802
	c-0.008,0.01-0.016,0.02-0.024,0.029l-0.994,0.994c-0.011,0.01-0.021,0.018-0.032,0.028l1.802,1.801l-0.549,2.083
	c-0.067,0.256,0.007,0.527,0.193,0.714l1.839,1.839c0.188,0.188,0.459,0.261,0.715,0.194l2.496-0.657
	c0.259-0.068,0.461-0.271,0.529-0.529l0.657-2.496c0.066-0.256-0.007-0.527-0.194-0.715L40.632,36.429z M40.681,40.681l-1.664,0.438
	l-1.235-1.235l0.438-1.664l1.664-0.438l1.235,1.235L40.681,40.681z"/>
<path fill="#00AAAD" d="M9.368,13.571c0.187,0.187,0.458,0.261,0.714,0.193l2.083-0.548l1.802,1.802
	c0.011-0.011,0.02-0.023,0.031-0.034l0.987-0.989c0.01-0.01,0.021-0.019,0.032-0.029l-1.801-1.801l0.548-2.084
	c0.067-0.255-0.007-0.527-0.194-0.714l-1.839-1.839c-0.187-0.187-0.458-0.26-0.714-0.193L8.521,7.992
	c-0.259,0.068-0.461,0.271-0.529,0.53l-0.657,2.496c-0.067,0.256,0.006,0.528,0.193,0.714L9.368,13.571z M9.319,9.319l1.664-0.438
	l1.235,1.236l-0.438,1.664l-1.664,0.438l-1.236-1.235L9.319,9.319z"/>
<g>
	<path fill="#00AAAD" d="M23.774,16.711c-0.234-0.375-0.719-0.52-1.12-0.334l-1.875,0.873c-0.404,0.189-0.598,0.65-0.459,1.076
		l0.387,1.168c-0.508,0.414-0.953,0.891-1.332,1.424l-1.168-0.281c-0.439-0.104-0.879,0.143-1.031,0.553l-0.703,1.943
		c-0.156,0.416,0.029,0.883,0.428,1.084l1.049,0.527c-0.064,0.684-0.035,1.371,0.082,2.056l-1.02,0.623
		c-0.379,0.244-0.527,0.721-0.34,1.123l0.879,1.875c0.184,0.4,0.645,0.605,1.072,0.457l1.131-0.375
		c0.463,0.545,0.988,1.021,1.574,1.424l-0.279,1.182c-0.105,0.438,0.135,0.875,0.553,1.027l1.943,0.703
		c0.416,0.158,0.881-0.027,1.084-0.428l0.578-1.146c0.656,0.039,1.314,0.006,1.959-0.117l0.668,1.09
		c0.236,0.381,0.715,0.52,1.123,0.332l1.871-0.875c0.404-0.189,0.604-0.646,0.461-1.068l-0.432-1.283
		c0.457-0.398,0.869-0.85,1.219-1.342l1.334,0.316c0.434,0.1,0.871-0.135,1.027-0.559l0.709-1.938
		c0.152-0.422-0.035-0.885-0.434-1.084l-1.217-0.605c0.059-0.638,0.031-1.263-0.066-1.888l1.178-0.723
		c0.375-0.236,0.521-0.717,0.33-1.117l-0.871-1.879c-0.188-0.402-0.648-0.598-1.074-0.457l-1.262,0.416
		c-0.428-0.516-0.92-0.973-1.471-1.371l0.307-1.271c0.104-0.434-0.133-0.873-0.551-1.023l-1.947-0.709
		c-0.416-0.156-0.879,0.027-1.078,0.434l-0.586,1.152c-0.662-0.061-1.324-0.033-1.979,0.078L23.774,16.711z M28.825,24.024
		c0.791,1.705,0.053,3.748-1.664,4.546c-1.705,0.797-3.744,0.049-4.54-1.652c-0.799-1.716-0.061-3.755,1.645-4.548
		C25.985,21.569,28.028,22.315,28.825,24.024z"/>
</g>
</svg>
