<?xml version="1.0" encoding="utf-8"?>
<!-- Generator: Adobe Illustrator 16.0.0, SVG Export Plug-In . SVG Version: 6.00 Build 0)  -->
<!DOCTYPE svg PUBLIC "-//W3C//DTD SVG 1.1//EN" "http://www.w3.org/Graphics/SVG/1.1/DTD/svg11.dtd">
<svg version="1.1" id="siddhi-logo" xmlns="http://www.w3.org/2000/svg" xmlns:xlink="http://www.w3.org/1999/xlink" x="0px"
	 y="0px" width="100px" height="28.1px" viewBox="0 36 100 28.1" style="enable-background:new 0 36 100 28.1;"
	 xml:space="preserve">
<style type="text/css">
<![CDATA[
	.st0{fill:#FFFFFF;}
]]>
</style>
<g>
	<g>
		<path class="st0" d="M12.7,63.5H5c-1.4,0-2.4-1.1-2.4-2.4s1.1-2.4,2.4-2.4h7.8c1.4,0,2.4,1.1,2.4,2.4S14.1,63.5,12.7,63.5z"/>
	</g>
	<path class="st0" d="M22.1,48.7c0.1,0.3,0.1,0.7,0.1,1c0,1.3-0.6,2.5-1.6,3.2c0.6,0.6,1,1.5,1,2.4c0,2-1.6,3.5-3.5,3.5v4.3
		c4.3,0,7.8-3.5,7.8-7.8C25.9,52.6,24.3,50.1,22.1,48.7z"/>
	<path class="st0" d="M18.1,52.2h-6.9c-1.4,0-2.4-1.1-2.4-2.4c0-1.4,1.1-2.4,2.4-2.4h6.9c1.4,0,2.4,1.1,2.4,2.4
		C20.5,51.1,19.4,52.2,18.1,52.2z"/>
	<path class="st0" d="M7.8,40.5h1.9c-0.4-0.6-0.6-1.3-0.6-2.1s0.2-1.5,0.6-2.1H7.8c-4.3,0-7.8,3.5-7.8,7.8c0,2.7,1.4,5.2,3.7,6.6
		l2.3-3.6c-1-0.7-1.7-1.8-1.7-3C4.3,42.1,5.8,40.5,7.8,40.5z"/>
	<path class="st0" d="M21,40.8h-7.8c-1.4,0-2.4-1.1-2.4-2.4s1.1-2.4,2.4-2.4H21c1.4,0,2.4,1.1,2.4,2.4S22.4,40.8,21,40.8z"/>
	<g>
		<polygon class="st0" points="16.5,63.5 23.6,63.5 16.5,56.5 		"/>
	</g>
	<g>
		<polygon class="st0" points="7.4,52.2 0.4,52.2 7.4,45.1 		"/>
	</g>
	<path class="st0" d="M34.2,42c0,1.4-1,2.4-2.6,2.4c-1.5,0-2.5-1.1-2.5-2.4c0-1.4,1-2.4,2.6-2.4C33.2,39.5,34.2,40.6,34.2,42z"/>
	<rect x="29.2" y="48" class="st0" width="4.9" height="15.7"/>
	<path class="st0" d="M53.2,36.3V59c0,1.8,0.1,3.6,0.1,4.7H49l-0.2-2.3h-0.1c-1,1.8-2.9,2.6-4.9,2.6c-3.7,0-6.7-3.2-6.7-8.1
		c0-5.3,3.3-8.3,7-8.3c1.9,0,3.4,0.7,4.1,1.8h0.1V36.3H53.2z M48.3,54.7c0-0.3,0-0.6-0.1-0.9c-0.3-1.3-1.3-2.4-2.8-2.4
		c-2.2,0-3.4,2-3.4,4.5c0,2.6,1.3,4.3,3.3,4.3c1.4,0,2.5-1,2.8-2.3c0.1-0.3,0.1-0.7,0.1-1.1L48.3,54.7L48.3,54.7z"/>
	<path class="st0" d="M72.3,36.3V59c0,1.8,0.1,3.6,0.1,4.7h-4.3l-0.2-2.3h-0.1c-1,1.8-2.9,2.6-4.9,2.6c-3.7,0-6.7-3.2-6.7-8.1
		c0-5.3,3.3-8.3,7-8.3c1.9,0,3.4,0.7,4.1,1.8h0.1V36.3H72.3z M67.4,54.7c0-0.3,0-0.6-0.1-0.9c-0.3-1.3-1.3-2.4-2.8-2.4
		c-2.2,0-3.4,2-3.4,4.5c0,2.6,1.3,4.3,3.3,4.3c1.4,0,2.5-1,2.8-2.3c0.1-0.3,0.1-0.7,0.1-1.1V54.7L67.4,54.7z"/>
	<path class="st0" d="M76.2,36.3h4.9v13.6h0.1c0.5-0.7,1.1-1.2,1.9-1.6c0.7-0.4,1.6-0.6,2.5-0.6c3.1,0,5.5,2.2,5.5,6.9v9.2h-4.9
		v-8.6c0-2.1-0.7-3.5-2.5-3.5c-1.3,0-2.1,0.8-2.4,1.7c-0.1,0.3-0.2,0.7-0.2,1.1v9.3h-4.9L76.2,36.3L76.2,36.3z"/>
	<path class="st0" d="M100,42c0,1.4-1,2.4-2.6,2.4c-1.5,0-2.5-1.1-2.5-2.4c0-1.4,1-2.4,2.6-2.4C99,39.5,100,40.6,100,42z"/>
	<rect x="95" y="48" class="st0" width="4.9" height="15.7"/>
</g>
</svg>
