<?xml version="1.0" encoding="utf-8"?>
<!-- Generator: Adobe Illustrator 16.0.0, SVG Export Plug-In . SVG Version: 6.00 Build 0)  -->
<!DOCTYPE svg PUBLIC "-//W3C//DTD SVG 1.1//EN" "http://www.w3.org/Graphics/SVG/1.1/DTD/svg11.dtd">
<svg version="1.1" id="Layer_1" xmlns="http://www.w3.org/2000/svg" xmlns:xlink="http://www.w3.org/1999/xlink" x="0px" y="0px"
	 width="50px" height="50px" viewBox="0 0 50 50" enable-background="new 0 0 50 50" xml:space="preserve">
<path fill="#02AAAD" d="M44.55,26.417l-2.621-3.018c0.604-1.014,1.496-2.331,1.989-3.353c0.257-0.548,0.021-1.2-0.527-1.457
	l-3.618-1.688l0.444-3.767c0.081-0.641-0.425-1.214-1.069-1.224l-3.99-0.071l-1.124-3.619c-0.19-0.616-0.876-0.938-1.473-0.688
	l-3.679,1.561l-2.46-2.809c-0.417-0.526-1.206-0.566-1.667-0.069l-2.724,2.918l-3.386-1.563c-0.596-0.313-1.333-0.027-1.554,0.615
	l-1.301,3.775l-3.693-0.049c-0.677-0.066-1.264,0.502-1.205,1.188l0.347,3.98l-3.477,1.493c-0.597,0.257-0.846,0.971-0.529,1.541
	l1.935,3.494l-2.513,2.718c-0.503,0.461-0.469,1.27,0.081,1.685l3.189,2.404l-1.22,3.59c-0.205,0.614,0.158,1.275,0.795,1.422
	l3.889,0.898l0.34,3.708c0.023,0.672,0.636,1.171,1.303,1.044l3.925-0.761l1.85,3.304c0.32,0.564,1.048,0.74,1.584,0.366
	l3.271-2.289l3.039,2.269c0.52,0.388,1.264,0.242,1.598-0.315l2.056-3.421l3.619,0.821c0.648,0.199,1.329-0.239,1.411-0.918
	l0.487-3.962l3.713-0.739c0.635-0.126,1.026-0.77,0.839-1.393l-1.167-3.821l3.096-2.188C44.878,27.66,44.971,26.904,44.55,26.417z
	 M34.602,20.704L24.96,31.392c-0.584,0.719-1.666,0.778-2.323,0.12l-6.07-6.069c-1.457-1.457,0.758-3.671,2.215-2.215l4.905,4.906
	l8.59-9.521C33.651,17.085,35.977,19.176,34.602,20.704z"/>
</svg>
