<?xml version="1.0" encoding="utf-8"?>
<!-- Generator: Adobe Illustrator 16.0.0, SVG Export Plug-In . SVG Version: 6.00 Build 0)  -->
<!DOCTYPE svg PUBLIC "-//W3C//DTD SVG 1.1//EN" "http://www.w3.org/Graphics/SVG/1.1/DTD/svg11.dtd">
<svg version="1.1" id="Layer_1" xmlns="http://www.w3.org/2000/svg" xmlns:xlink="http://www.w3.org/1999/xlink" x="0px" y="0px"
	 width="50px" height="50px" viewBox="0 0 50 50" enable-background="new 0 0 50 50" xml:space="preserve">
<g>
	<path fill-rule="evenodd" clip-rule="evenodd" fill="#02AAAD" d="M43.611,31.509c0.229-1.131,0.575-2.251,0.669-3.393
		c0.629-7.544-1.96-13.714-8.07-18.273c-2.332-1.74-4.984-2.841-7.869-3.331c-0.189-0.032-0.376-0.083-0.565-0.108
		c-0.353-0.049-0.472-0.234-0.392-0.579c0.044-0.186,0.066-0.379,0.077-0.57c0.026-0.504,0.266-0.643,0.76-0.557
		c6.612,1.135,11.702,4.551,15.06,10.347c3.125,5.394,3.728,11.154,1.905,17.139c-0.04,0.132-0.035,0.276-0.066,0.538
		c0.416-0.161,0.736-0.309,1.069-0.404c0.152-0.043,0.439-0.047,0.483,0.033c0.214,0.389,0.393,0.803,0.521,1.225
		c0.028,0.094-0.168,0.329-0.308,0.387c-1.138,0.48-2.278,0.948-3.438,1.374c-0.144,0.053-0.497-0.108-0.561-0.257
		c-0.477-1.091-0.925-2.196-1.328-3.316c-0.058-0.158,0.147-0.447,0.293-0.625c0.096-0.116,0.305-0.136,0.458-0.213
		c0.427-0.22,0.766-0.201,0.939,0.324c0.029,0.09,0.103,0.166,0.157,0.248C43.476,31.502,43.543,31.505,43.611,31.509z"/>
	<path fill-rule="evenodd" clip-rule="evenodd" fill="#02AAAD" d="M10.203,38.701c0.418,0.44,0.809,0.912,1.257,1.319
		c2.836,2.582,6.102,4.296,9.909,4.976c2.865,0.512,5.701,0.438,8.491-0.325c3.915-1.071,7.276-3.092,9.89-6.245
		c0.386-0.467,0.626-0.482,1.062-0.091c0.78,0.702,0.788,0.666,0.105,1.448c-2.872,3.292-6.438,5.48-10.64,6.607
		c-3.24,0.871-6.521,0.935-9.817,0.24c-4.463-0.94-8.193-3.146-11.304-6.449C9.069,40.091,8.979,40,8.882,39.918
		c-0.025-0.022-0.08-0.01-0.167-0.017c-0.041,0.068-0.099,0.151-0.144,0.24c-0.124,0.243-0.245,0.7-0.365,0.699
		C7.75,40.838,7.292,40.7,6.845,40.576c-0.063-0.018-0.109-0.265-0.084-0.392c0.239-1.212,0.498-2.421,0.746-3.63
		c0.077-0.375,0.275-0.471,0.648-0.384c1.08,0.251,2.162,0.486,3.249,0.702c0.936,0.184,0.389,0.81,0.378,1.253
		c-0.012,0.453-0.269,0.638-0.738,0.496c-0.235-0.07-0.492-0.066-0.74-0.098C10.27,38.584,10.236,38.643,10.203,38.701z"/>
	<path fill-rule="evenodd" clip-rule="evenodd" fill="#02AAAD" d="M20.95,6.54c-0.987,0.294-2.002,0.519-2.958,0.892
		c-6.431,2.513-10.531,7.14-12.218,13.819c-0.856,3.39-0.711,6.806,0.351,10.162c0.091,0.288,0.2,0.806,0.082,0.884
		c-0.395,0.257-0.883,0.394-1.354,0.5c-0.077,0.018-0.315-0.328-0.354-0.528c-0.342-1.774-0.854-3.542-0.943-5.333
		C3.178,19.251,6.171,13.09,12.312,8.482c2.487-1.867,5.31-3.04,8.361-3.654c0.141-0.028,0.278-0.078,0.526-0.149
		c-0.321-0.381-0.596-0.708-1.075-1.276c0.368-0.262,0.719-0.546,1.105-0.768c0.132-0.075,0.426-0.065,0.526,0.031
		c0.89,0.857,1.751,1.746,2.628,2.617c0.243,0.242,0.27,0.438,0.006,0.694c-0.841,0.817-1.669,1.645-2.493,2.479
		c-0.25,0.254-0.465,0.26-0.702-0.003c-0.099-0.11-0.2-0.224-0.32-0.31c-0.526-0.379-0.56-0.755-0.024-1.155
		c0.077-0.058,0.121-0.163,0.18-0.245C21.004,6.675,20.978,6.607,20.95,6.54z"/>
</g>
<path fill="#02AAAD" d="M22.505,14.308c-0.3-0.48-0.919-0.667-1.433-0.427l-2.398,1.117c-0.517,0.241-0.765,0.832-0.587,1.377
	l0.496,1.494c-0.65,0.53-1.219,1.14-1.704,1.822l-1.494-0.359c-0.562-0.133-1.125,0.18-1.319,0.705l-0.899,2.489
	c-0.2,0.532,0.037,1.127,0.547,1.387l1.343,0.674c-0.082,0.875-0.045,1.753,0.105,2.632l-1.305,0.797
	c-0.485,0.312-0.675,0.921-0.436,1.438l1.125,2.398c0.235,0.51,0.825,0.772,1.372,0.585l1.447-0.48
	c0.592,0.697,1.264,1.306,2.014,1.822l-0.357,1.51c-0.134,0.562,0.173,1.12,0.708,1.316l2.486,0.899
	c0.532,0.202,1.127-0.036,1.387-0.548l0.739-1.468c0.839,0.052,1.681,0.008,2.507-0.149l0.854,1.396
	c0.301,0.487,0.914,0.666,1.437,0.423l2.394-1.119c0.516-0.24,0.772-0.826,0.59-1.365l-0.554-1.642
	c0.585-0.51,1.112-1.087,1.561-1.717l1.707,0.403c0.555,0.129,1.113-0.172,1.312-0.713l0.907-2.479
	c0.193-0.541-0.045-1.133-0.556-1.387l-1.557-0.773c0.076-0.818,0.04-1.617-0.084-2.416l1.507-0.926
	c0.479-0.302,0.666-0.917,0.422-1.428l-1.114-2.405c-0.241-0.514-0.828-0.765-1.373-0.584l-1.615,0.532
	c-0.547-0.66-1.177-1.245-1.883-1.753l0.394-1.626c0.134-0.556-0.17-1.117-0.705-1.312l-2.491-0.907
	c-0.532-0.199-1.124,0.038-1.378,0.556l-0.751,1.474c-0.846-0.075-1.692-0.042-2.532,0.1L22.505,14.308z M28.967,23.662
	c1.012,2.182,0.067,4.796-2.129,5.816c-2.182,1.021-4.79,0.064-5.807-2.111c-1.023-2.196-0.079-4.806,2.104-5.82
	C25.334,20.521,27.947,21.475,28.967,23.662z"/>
</svg>
