<?xml version="1.0" encoding="utf-8"?>
<!-- Generator: Adobe Illustrator 16.0.0, SVG Export Plug-In . SVG Version: 6.00 Build 0)  -->
<!DOCTYPE svg PUBLIC "-//W3C//DTD SVG 1.1//EN" "http://www.w3.org/Graphics/SVG/1.1/DTD/svg11.dtd">
<svg version="1.1" id="Layer_1" xmlns="http://www.w3.org/2000/svg" xmlns:xlink="http://www.w3.org/1999/xlink" x="0px" y="0px"
	 width="50px" height="50px" viewBox="0 0 50 50" style="enable-background:new 0 0 50 50;" xml:space="preserve">
<style type="text/css">
<![CDATA[
	.st0{fill:#00AAAD;}
]]>
</style>
<g>
	<path class="st0" d="M24.7,19.1c2.5,0,4.6,1,4.6,2.2c-0.1,1.2-2.2,2.2-4.6,2.2c-2.5,0-4.6-1-4.6-2.2C20.1,20.1,22.2,19.1,24.7,19.1
		L24.7,19.1z"/>
	<path class="st0" d="M29.4,28c0,1.3-2.1,2.3-4.7,2.3c-2.5,0-4.7-1.1-4.7-2.3v-1.1c0.8,1,2.6,1.6,4.7,1.6c2.1,0,3.9-0.7,4.7-1.6V28z
		"/>
	<path class="st0" d="M29.4,25.8c0,1.3-2.1,2.3-4.7,2.3c-2.5,0-4.7-1.1-4.7-2.3v-1.2c0.8,1,2.6,1.6,4.7,1.6c2.1,0,3.9-0.7,4.7-1.6
		V25.8z"/>
	<path class="st0" d="M29.4,23.5c0,1.3-2.1,2.3-4.7,2.3c-2.5,0-4.7-1.1-4.7-2.3v-1c0.8,1,2.6,1.6,4.7,1.6c2.1,0,3.9-0.7,4.7-1.6
		V23.5z"/>
</g>
<g>
	<path class="st0" d="M40.5,33.2c2.9,0,5.3,1.2,5.4,2.6c-0.1,1.4-2.5,2.6-5.4,2.6s-5.3-1.2-5.4-2.6C35.2,34.4,37.6,33.2,40.5,33.2
		L40.5,33.2z"/>
	<path class="st0" d="M46,43.7c0,1.5-2.5,2.7-5.4,2.7s-5.4-1.2-5.4-2.7v-1.3c0.9,1.1,3,1.9,5.4,1.9c2.4,0,4.5-0.8,5.4-1.9V43.7z"/>
	<path class="st0" d="M46,41c0,1.5-2.5,2.7-5.4,2.7s-5.4-1.2-5.4-2.7v-1.3c0.9,1.1,3,1.9,5.4,1.9c2.4,0,4.5-0.8,5.4-1.9V41z"/>
	<path class="st0" d="M46,38.3c0,1.5-2.5,2.7-5.4,2.7s-5.4-1.2-5.4-2.7v-1.2c0.9,1.1,3,1.9,5.4,1.9c2.4,0,4.5-0.8,5.4-1.9V38.3z"/>
</g>
<g>
	<path class="st0" d="M8.3,33.2c2.9,0,5.3,1.2,5.4,2.6c-0.1,1.4-2.5,2.6-5.4,2.6S3,37.3,2.9,35.9C3,34.4,5.4,33.2,8.3,33.2L8.3,33.2
		z"/>
	<path class="st0" d="M13.8,43.7c0,1.5-2.5,2.7-5.4,2.7s-5.4-1.2-5.4-2.7v-1.3c0.9,1.1,3,1.9,5.4,1.9c2.4,0,4.5-0.8,5.4-1.9V43.7z"
		/>
	<path class="st0" d="M13.8,41c0,1.5-2.5,2.7-5.4,2.7S2.9,42.5,2.9,41v-1.3c0.9,1.1,3,1.9,5.4,1.9c2.4,0,4.5-0.8,5.4-1.9V41z"/>
	<path class="st0" d="M13.8,38.3c0,1.5-2.5,2.7-5.4,2.7s-5.4-1.2-5.4-2.7v-1.2c0.9,1.1,3,1.9,5.4,1.9c2.4,0,4.5-0.8,5.4-1.9V38.3z"
		/>
</g>
<g>
	<path class="st0" d="M40.5,2.5c2.9,0,5.3,1.2,5.4,2.6c-0.1,1.4-2.5,2.6-5.4,2.6s-5.3-1.2-5.4-2.6C35.2,3.7,37.6,2.5,40.5,2.5
		L40.5,2.5z"/>
	<path class="st0" d="M46,12.9c0,1.5-2.5,2.7-5.4,2.7s-5.4-1.2-5.4-2.7v-1.3c0.9,1.1,3,1.9,5.4,1.9c2.4,0,4.5-0.8,5.4-1.9V12.9z"/>
	<path class="st0" d="M46,10.3c0,1.5-2.5,2.7-5.4,2.7s-5.4-1.2-5.4-2.7V8.9c0.9,1.1,3,1.9,5.4,1.9C43,10.8,45,10,46,8.9V10.3z"/>
	<path class="st0" d="M46,7.6c0,1.5-2.5,2.7-5.4,2.7S35.1,9,35.1,7.6V6.4c0.9,1.1,3,1.9,5.4,1.9C43,8.3,45,7.5,46,6.4V7.6z"/>
</g>
<g>
	<path class="st0" d="M8.3,2.5c2.9,0,5.3,1.2,5.4,2.6c-0.1,1.4-2.5,2.6-5.4,2.6C5.4,7.7,3,6.5,2.9,5.1C3,3.7,5.4,2.5,8.3,2.5
		L8.3,2.5z"/>
	<path class="st0" d="M13.8,12.9c0,1.5-2.5,2.7-5.4,2.7c-2.9,0-5.4-1.2-5.4-2.7v-1.3c0.9,1.1,3,1.9,5.4,1.9s4.5-0.8,5.4-1.9V12.9z"
		/>
	<path class="st0" d="M13.8,10.3c0,1.5-2.5,2.7-5.4,2.7c-2.9,0-5.4-1.2-5.4-2.7V8.9c0.9,1.1,3,1.9,5.4,1.9s4.5-0.8,5.4-1.9V10.3z"/>
	<path class="st0" d="M13.8,7.6c0,1.5-2.5,2.7-5.4,2.7c-2.9,0-5.4-1.2-5.4-2.7V6.4c0.9,1.1,3,1.9,5.4,1.9s4.5-0.8,5.4-1.9V7.6z"/>
</g>
<rect x="29.7" y="15.8" transform="matrix(0.7071 -0.7071 0.7071 0.7071 -2.294 28.1972)" class="st0" width="6.4" height="2.2"/>
<rect x="12.5" y="31.5" transform="matrix(0.7072 -0.707 0.707 0.7072 -18.4502 20.6809)" class="st0" width="6.4" height="2.2"/>
<rect x="12.5" y="15.8" transform="matrix(0.707 0.7072 -0.7072 0.707 16.5405 -6.1909)" class="st0" width="6.4" height="2.2"/>
<rect x="29.7" y="31.5" transform="matrix(0.7071 0.7071 -0.7071 0.7071 32.6959 -13.7044)" class="st0" width="6.4" height="2.2"/>
</svg>
