<?xml version="1.0" encoding="utf-8"?>
<!-- Generator: Adobe Illustrator 23.0.3, SVG Export Plug-In . SVG Version: 6.00 Build 0)  -->
<svg version="1.1" id="siddhi-logo" xmlns="http://www.w3.org/2000/svg" xmlns:xlink="http://www.w3.org/1999/xlink" x="0px"
	 y="0px" viewBox="0 0 64 64" enable-background="new 0 0 64 64" xml:space="preserve">
<path fill="#1A1A1A" d="M58.812,65H5.188C1.77,65-1,62.23-1,58.812V5.188C-1,1.77,1.77-1,5.188-1h53.625C62.23-1,65,1.77,65,5.188
	v53.625C65,62.23,62.23,65,58.812,65z"/>
<g>
	<g>
		<path fill="#00AAAC" d="M31.689,56H18.137c-2.352,0-4.259-1.907-4.259-4.259c0-2.352,1.907-4.259,4.259-4.259h13.552
			c2.352,0,4.259,1.907,4.259,4.259C35.948,54.093,34.041,56,31.689,56z"/>
	</g>
	<path fill="#FFFFFF" d="M47.93,30.243c0.142,0.564,0.225,1.15,0.225,1.757c0,2.287-1.072,4.326-2.737,5.65
		c1.04,1.104,1.682,2.587,1.682,4.22c0,3.401-2.766,6.167-6.167,6.167v7.407c7.485,0,13.574-6.089,13.574-13.574
		C54.507,36.944,51.868,32.622,47.93,30.243z"/>
	<path fill="#00AAAC" d="M40.933,36.259h-12.07c-2.352,0-4.259-1.907-4.259-4.259s1.907-4.259,4.259-4.259h12.07
		c2.352,0,4.259,1.907,4.259,4.259S43.286,36.259,40.933,36.259z"/>
	<path fill="#FFFFFF" d="M23.067,15.962h3.308c-0.652-1.085-1.033-2.349-1.033-3.703s0.382-2.619,1.033-3.703h-3.308
		c-7.485,0-13.574,6.089-13.574,13.574c0,4.705,2.382,9.006,6.372,11.507l3.933-6.276c-1.815-1.138-2.899-3.093-2.899-5.231
		C16.9,18.729,19.666,15.962,23.067,15.962z"/>
	<path fill="#00AAAC" d="M46.115,16.518H32.563c-2.352,0-4.259-1.907-4.259-4.259S30.21,8,32.563,8h13.552
		c2.352,0,4.259,1.907,4.259,4.259S48.467,16.518,46.115,16.518z"/>
	<g>
		<polygon fill="#FFFFFF" points="38.302,56 50.594,56 38.302,43.708 		"/>
	</g>
	<g>
		<polygon fill="#FFFFFF" points="22.42,36.259 10.128,36.259 22.42,23.968 		"/>
	</g>
</g>
</svg>
