<?xml version="1.0" encoding="utf-8"?>
<!-- Generator: Adobe Illustrator 23.0.3, SVG Export Plug-In . SVG Version: 6.00 Build 0)  -->
<svg version="1.1" id="siddhi-logo" xmlns="http://www.w3.org/2000/svg" xmlns:xlink="http://www.w3.org/1999/xlink" x="0px"
	 y="0px" viewBox="0 0 120.039 128" enable-background="new 0 0 120.039 128" xml:space="preserve">
<g>
	<g>
		<path fill="#00AAAC" d="M59.19,128H23.052c-6.273,0-11.357-5.085-11.357-11.357c0-6.272,5.084-11.357,11.357-11.357H59.19
			c6.273,0,11.357,5.085,11.357,11.357C70.547,122.915,65.463,128,59.19,128z"/>
	</g>
	<path fill="#4D4D4D" d="M102.499,59.316c0.378,1.503,0.6,3.066,0.6,4.685c0,6.1-2.859,11.536-7.299,15.067
		c2.773,2.945,4.486,6.899,4.486,11.254c0,9.068-7.377,16.446-16.446,16.446v19.752c19.959,0,36.197-16.238,36.197-36.197
		C120.039,77.183,113.002,65.659,102.499,59.316z"/>
	<path fill="#00AAAC" d="M83.842,75.357H51.654c-6.273,0-11.357-5.085-11.357-11.357s5.084-11.357,11.357-11.357h32.188
		c6.273,0,11.357,5.085,11.357,11.357S90.115,75.357,83.842,75.357z"/>
	<path fill="#4D4D4D" d="M36.197,21.233h8.821c-1.738-2.892-2.756-6.263-2.756-9.876s1.018-6.984,2.756-9.876h-8.821
		C16.238,1.481,0,17.72,0,37.678c0,12.546,6.352,24.017,16.992,30.686l10.489-16.736c-4.84-3.034-7.73-8.249-7.73-13.951
		C19.752,28.61,27.129,21.233,36.197,21.233z"/>
	<path fill="#00AAAC" d="M97.658,22.714H61.52c-6.273,0-11.357-5.085-11.357-11.357S55.248,0,61.52,0h36.138
		c6.273,0,11.357,5.085,11.357,11.357S103.931,22.714,97.658,22.714z"/>
	<g>
		<polygon fill="#4D4D4D" points="76.825,128 109.603,128 76.825,95.223 		"/>
	</g>
	<g>
		<polygon fill="#4D4D4D" points="34.472,75.357 1.694,75.357 34.472,42.58 		"/>
	</g>
</g>
</svg>
